<svg xmlns="http://www.w3.org/2000/svg" viewBox="0 0 240 80" fill="none">
  <path d="M40 16c-6.6 0-12.3 3.8-15 9.3C22.8 22 19.6 20 16 20 9.4 20 4 25.4 4 32s5.4 12 12 12c1.2 0 2.4-.2 3.5-.5C21.2 48.5 26.2 52 32 52c3.4 0 6.5-1.3 8.8-3.4C43 51.4 46.3 53 50 53c5.8 0 10.6-4.2 11.7-9.7C62.4 43.8 63.2 44 64 44c5.5 0 10-4.5 10-10s-4.5-10-10-10c-.5 0-1 0-1.5.1C60.2 19.3 55.4 16 50 16c-3 0-5.8 1-8 2.7C39.8 16.6 36.8 16 40 16z" fill="#00A1E0"/>
  <text x="120" y="70" text-anchor="middle" font-family="system-ui, -apple-system, 'Segoe UI', sans-serif" font-size="14" font-weight="700" fill="#032D60">salesforce</text>
</svg>